<svg width="90" height="22" viewBox="0 0 90 22" fill="none" xmlns="http://www.w3.org/2000/svg">
<path d="M1.92 20.94V20.64C2.22 20.42 2.4 20.17 2.46 19.89C2.52 19.61 2.56 19.19 2.58 18.63V3.81C2.58 3.57 2.57 3.33 2.55 3.09C2.55 2.85 2.54 2.62 2.52 2.4C2.5 2.14 2.36 1.94 2.1 1.8C1.84 1.66 1.53 1.55 1.17 1.47C0.83 1.39 0.53 1.31 0.27 1.23V0.659999L0.48 0.419999H9.87C12.19 0.419999 14.07 0.639999 15.51 1.08C16.97 1.52 18.08 2.14 18.84 2.94C19.62 3.74 20.15 4.7 20.43 5.82C20.73 6.92 20.88 8.13 20.88 9.45C20.88 11.35 20.67 12.99 20.25 14.37C19.85 15.73 19.07 17.03 17.91 18.27C17.25 18.99 16.4 19.55 15.36 19.95C14.34 20.33 13.26 20.59 12.12 20.73C10.98 20.87 9.89 20.94 8.85 20.94H1.92ZM5.1 3.75V15.9C5.12 16.3 5.14 16.75 5.16 17.25C5.18 17.73 5.23 18.17 5.31 18.57C5.39 18.97 5.5 19.25 5.64 19.41C5.84 19.61 6.18 19.73 6.66 19.77C7.16 19.79 7.61 19.8 8.01 19.8C10.03 19.8 11.69 19.52 12.99 18.96C14.31 18.38 15.34 17.61 16.08 16.65C16.82 15.67 17.33 14.58 17.61 13.38C17.91 12.18 18.06 10.95 18.06 9.69C18.06 9.07 17.99 8.37 17.85 7.59C17.73 6.81 17.51 6.04 17.19 5.28C16.87 4.5 16.43 3.83 15.87 3.27C15.15 2.57 14.06 2.13 12.6 1.95C11.16 1.75 9.46 1.65 7.5 1.65C6.86 1.65 6.39 1.66 6.09 1.68C5.81 1.7 5.62 1.73 5.52 1.77C5.42 1.81 5.34 1.85 5.28 1.89C5.22 1.91 5.17 2.05 5.13 2.31C5.11 2.55 5.1 3.03 5.1 3.75ZM51.0691 0.75L53.4991 0.33V0.959999L50.0491 6.6C49.6891 7.18 49.2291 8.01 48.6691 9.09C48.1091 10.15 47.4991 11.34 46.8391 12.66C46.1791 13.98 45.5291 15.33 44.8891 16.71C44.2491 18.07 43.6891 19.34 43.2091 20.52L41.4091 21.33L41.0491 21.09C40.5691 18.37 40.0491 15.67 39.4891 12.99C38.9491 10.29 38.3791 7.6 37.7791 4.92C37.7591 4.84 37.7391 4.76 37.7191 4.68C37.6991 4.6 37.6491 4.56 37.5691 4.56C37.5291 4.56 37.4791 4.6 37.4191 4.68C37.3791 4.76 37.3391 4.84 37.2991 4.92L36.4591 6.81C35.9191 8.01 35.3091 9.38 34.6291 10.92C33.9691 12.44 33.3191 14.02 32.6791 15.66C32.0391 17.3 31.4791 18.9 30.9991 20.46L29.0791 21.33L28.7491 21.18C28.4091 19.26 28.0491 17.35 27.6691 15.45C27.2891 13.53 26.8691 11.63 26.4091 9.75C26.1091 8.53 25.7991 7.32 25.4791 6.12C25.1591 4.92 24.7691 3.74 24.3091 2.58C24.1491 2.16 23.8591 1.87 23.4391 1.71C23.0391 1.55 22.6091 1.43 22.1491 1.35L22.0891 0.629999L22.3291 0.419999L27.0091 0.33C27.1091 0.809999 27.2491 1.5 27.4291 2.4C27.6091 3.28 27.8191 4.29 28.0591 5.43C28.2991 6.55 28.5491 7.74 28.8091 9C29.0891 10.24 29.3591 11.47 29.6191 12.69C29.8991 13.91 30.1591 15.05 30.3991 16.11C30.4191 16.23 30.4891 16.29 30.6091 16.29C30.7091 16.29 30.7791 16.25 30.8191 16.17C31.0791 15.67 31.4191 14.96 31.8391 14.04C32.2791 13.1 32.7591 12.06 33.2791 10.92C33.7991 9.76 34.3191 8.58 34.8391 7.38C35.3791 6.16 35.8691 5.01 36.3091 3.93C36.7691 2.85 37.1291 1.93 37.3891 1.17L39.6691 0.299998L39.8791 0.48C39.8791 1.1 39.9691 1.98 40.1491 3.12C40.3291 4.24 40.5591 5.51 40.8391 6.93C41.1391 8.35 41.4391 9.79 41.7391 11.25C41.8391 11.67 41.9391 12.19 42.0391 12.81C42.1591 13.43 42.2791 14.05 42.3991 14.67C42.5391 15.27 42.6691 15.78 42.7891 16.2C42.9291 16.62 43.0691 16.83 43.2091 16.83C43.3491 16.83 43.4391 16.81 43.4791 16.77C43.5391 16.71 43.5791 16.66 43.5991 16.62L45.9991 11.52L49.2691 4.26C49.5891 3.56 49.8991 2.92 50.1991 2.34C50.5191 1.76 50.8091 1.23 51.0691 0.75ZM58.9533 11.43L58.6833 11.46C58.6833 12.92 58.6933 14.39 58.7133 15.87C58.7333 17.33 58.7833 18.79 58.8633 20.25L56.4333 21.12L56.1933 20.97V3.15C56.1933 2.99 56.1833 2.83 56.1633 2.67C56.1433 2.51 56.1033 2.36 56.0433 2.22C55.9633 2.04 55.7433 1.88 55.3833 1.74C55.0433 1.58 54.7033 1.46 54.3633 1.38C54.0433 1.28 53.8533 1.23 53.7933 1.23L53.8533 0.719998L54.0933 0.509999H58.8333L59.0433 0.719998C58.9433 1.04 58.8533 1.57 58.7733 2.31C58.7133 3.03 58.6633 4.03 58.6233 5.31C58.6033 6.59 58.5933 8.24 58.5933 10.26L58.8333 10.29L67.4433 0.509999H70.1433L70.1133 0.779999L61.3833 9.6C61.3433 9.64 61.2933 9.7 61.2333 9.78C61.1733 9.84 61.1433 9.89 61.1433 9.93C61.1433 10.01 61.1933 10.1 61.2933 10.2C62.0933 11 62.9733 11.88 63.9333 12.84C64.8933 13.8 65.8433 14.75 66.7833 15.69C67.7433 16.61 68.6133 17.45 69.3933 18.21C70.1933 18.97 70.8233 19.55 71.2833 19.95L71.2533 20.28L68.7033 21.21C67.1233 19.53 65.5033 17.89 63.8433 16.29C62.2033 14.69 60.5733 13.07 58.9533 11.43ZM78.4165 12.03L73.9465 3.18C73.6065 2.5 73.2365 2.07 72.8365 1.89C72.4565 1.69 71.9665 1.55 71.3665 1.47V0.629999L71.5765 0.419999H75.9265L80.1565 10.17C80.1765 10.19 80.2165 10.24 80.2765 10.32C80.3565 10.38 80.4365 10.41 80.5165 10.41C80.5765 10.41 80.7165 10.26 80.9365 9.96C81.1565 9.64 81.4165 9.24 81.7165 8.76C82.0165 8.26 82.3165 7.74 82.6165 7.2C82.6765 7.1 82.8565 6.79 83.1565 6.27C83.4565 5.75 83.8065 5.14 84.2065 4.44C84.6265 3.74 85.0365 3.05 85.4365 2.37C85.8565 1.69 86.1965 1.14 86.4565 0.719998L89.0065 0.209999L89.1265 0.75C88.0265 2.19 87.0165 3.51 86.0965 4.71C85.1965 5.91 84.3465 7.08 83.5465 8.22C82.7465 9.34 81.9265 10.54 81.0865 11.82L81.3565 20.46L78.6565 21.33L78.3265 21.06C78.3665 19.56 78.3865 18.06 78.3865 16.56C78.4065 15.04 78.4165 13.53 78.4165 12.03Z" fill="#0B0B0B"/>
</svg>
