<svg width="34" height="37" viewBox="0 0 34 37" fill="none" xmlns="http://www.w3.org/2000/svg">
<path d="M17 0.469238C16.1259 0.469238 15.2575 0.760008 14.5093 1.2917L12.1934 2.89232L9.52509 3.23847H9.48174L9.43839 3.28139C8.56326 3.47706 7.76207 3.91428 7.12768 4.54238C6.49329 5.17047 6.05169 5.96372 5.85406 6.83016L5.81211 6.87308V6.91601L5.46249 9.59939L3.84584 11.6763L3.80109 11.7192V11.7622C2.82354 13.3088 2.78019 15.3054 3.84584 16.7814L5.50584 19.0743L5.94357 21.4559L1.44184 28.2474L0 30.3686H6.68616L8.30281 34.0891L9.30833 36.4692L10.7502 34.3051L15.1638 27.7282C16.3497 28.21 17.6881 28.2543 18.8362 27.7282L23.2498 34.3051L24.6917 36.4692L25.6972 34.0891L27.3138 30.3686H34L32.5582 28.2474L28.1879 21.6719L28.5375 19.0757L30.1542 16.7828L30.1989 16.7399V16.6969C31.1765 15.1503 31.2198 13.1966 30.1542 11.7206L28.5375 9.42632L28.0131 6.83016H28.0564C28.0508 6.79693 28.0187 6.77478 28.0131 6.74293C27.7614 4.93185 26.3139 3.46139 24.4735 3.23847H24.4288L21.8066 2.89232L19.4907 1.2917C18.7674 0.767094 17.8965 0.479524 17 0.469238ZM17 3.28139C17.3217 3.28139 17.6391 3.37831 17.8741 3.5417L20.3648 5.31539L20.671 5.53139L21.0206 5.5757L24.0805 6.0077H24.1225C24.7518 6.07693 25.1881 6.51032 25.2595 7.13339V7.21924L25.8286 10.2917L25.8706 10.5949L26.0902 10.8539L27.8816 13.3199C28.2159 13.7795 28.2592 14.5591 27.8383 15.2237L25.872 17.95L25.8272 18.2962L25.3909 21.3257V21.3672C25.3676 21.5836 25.2929 21.7915 25.1728 21.9737L25.0847 22.018V22.0595C24.8768 22.3067 24.5787 22.4625 24.2553 22.4929H24.1672L20.9773 23.0565L20.6277 23.098L20.3648 23.3154L17.8741 25.0891C17.4098 25.42 16.5791 25.4629 15.9078 25.0462L13.6352 23.3154L13.3723 23.0994L12.9794 23.0551L9.91946 22.6231H9.87751C9.67976 22.6058 9.48912 22.5417 9.32166 22.4361C9.1542 22.3306 9.01485 22.1867 8.91535 22.0166C8.82242 21.8569 8.76296 21.6803 8.74054 21.4974V21.4115L8.17275 18.2532L8.128 17.9071L7.90984 17.6468L6.11838 15.1808C5.78414 14.7211 5.74079 13.8986 6.16173 13.234L7.90984 10.984L8.128 10.7237L8.17136 10.3346L8.56573 7.43524C8.57132 7.41447 8.60349 7.41447 8.60908 7.39232C8.69627 7.059 8.87191 6.75485 9.11782 6.51139C9.36372 6.26793 9.67092 6.09402 10.0076 6.0077C10.0299 6.00216 10.0299 5.97031 10.0509 5.96478L12.9794 5.57432L13.329 5.53278L13.6352 5.31539L16.1259 3.5417C16.3609 3.3797 16.6783 3.28139 17 3.28139ZM26.6579 24.3539L28.8004 27.5994H25.4329L25.0833 28.4648L24.1225 30.6705L21.1507 26.1705L21.8052 25.6955L24.5602 25.2192V25.2622C24.5924 25.2566 24.6134 25.2248 24.6469 25.2192C25.383 25.1141 26.077 24.8152 26.6565 24.3539H26.6579ZM7.34205 24.3968C7.94931 24.9434 8.71219 25.2911 9.52649 25.3923H9.56984L12.2368 25.7385L12.8479 26.2148L9.87611 30.6705L8.91535 28.4648L8.56573 27.5994H5.20097L7.34205 24.3968Z" fill="#FD5D03"/>
</svg>
