<svg width="37" height="38" viewBox="0 0 37 38" fill="none" xmlns="http://www.w3.org/2000/svg">
<path d="M18.5 0.0307617C8.2991 0.0307617 0 8.32986 0 18.5308V26.1953C0 28.0897 1.65945 29.6308 3.7 29.6308H5.55C6.04065 29.6308 6.51121 29.4359 6.85815 29.0889C7.20509 28.742 7.4 28.2714 7.4 27.7808V18.2662C7.4 17.7756 7.20509 17.305 6.85815 16.9581C6.51121 16.6111 6.04065 16.4162 5.55 16.4162H3.8702C4.8988 9.25671 11.0593 3.73076 18.5 3.73076C25.9407 3.73076 32.1012 9.25671 33.1298 16.4162H31.45C30.9594 16.4162 30.4888 16.6111 30.1419 16.9581C29.7949 17.305 29.6 17.7756 29.6 18.2662V29.6308C29.6 31.6713 27.9405 33.3308 25.9 33.3308H22.2V31.4808H14.8V37.0308H25.9C29.9811 37.0308 33.3 33.7119 33.3 29.6308C35.3405 29.6308 37 28.0897 37 26.1953V18.5308C37 8.32986 28.7009 0.0307617 18.5 0.0307617Z" fill="#FD5D03"/>
</svg>
