<svg width="39" height="31" viewBox="0 0 39 31" fill="none" xmlns="http://www.w3.org/2000/svg">
<path d="M2.71429 14.5506H19V17.4077H2.71429V14.5506ZM0 7.40771H13.5714V10.2649H0V7.40771Z" fill="#FD5D03"/>
<path d="M38.8867 14.869L34.6892 5.32451C34.5815 5.07919 34.4022 4.8701 34.1736 4.72321C33.945 4.57631 33.6772 4.49808 33.4034 4.49823H29.2059V1.77122C29.2059 1.4096 29.0585 1.06278 28.7961 0.807076C28.5337 0.55137 28.1778 0.407715 27.8067 0.407715H5.42013V3.13472H26.4075V20.2549C25.77 20.6157 25.212 21.0959 24.7659 21.6678C24.3197 22.2398 23.9941 22.8921 23.8079 23.5873H15.0156C14.675 22.302 13.8651 21.1818 12.7377 20.4368C11.6103 19.6917 10.2428 19.373 8.89144 19.5402C7.54011 19.7075 6.29777 20.3493 5.39729 21.3454C4.4968 22.3414 4 23.6233 4 24.9508C4 26.2783 4.4968 27.5602 5.39729 28.5562C6.29777 29.5523 7.54011 30.1941 8.89144 30.3613C10.2428 30.5286 11.6103 30.2099 12.7377 29.4648C13.8651 28.7198 14.675 27.5996 15.0156 26.3143H23.8079C24.1123 27.4845 24.8083 28.5224 25.786 29.2638C26.7637 30.0052 27.9671 30.4077 29.2059 30.4077C30.4447 30.4077 31.6481 30.0052 32.6257 29.2638C33.6034 28.5224 34.2995 27.4845 34.6038 26.3143H37.6008C37.9719 26.3143 38.3278 26.1706 38.5902 25.9149C38.8526 25.6592 39 25.3124 39 24.9508V15.4063C39.0001 15.2215 38.9615 15.0388 38.8867 14.869ZM9.61761 27.6778C9.06415 27.6778 8.52313 27.5179 8.06294 27.2182C7.60276 26.9186 7.24409 26.4927 7.0323 25.9944C6.8205 25.4961 6.76508 24.9478 6.87306 24.4188C6.98103 23.8898 7.24754 23.4039 7.6389 23.0225C8.03025 22.6411 8.52886 22.3814 9.07168 22.2762C9.61451 22.171 10.1772 22.225 10.6885 22.4314C11.1998 22.6378 11.6368 22.9873 11.9443 23.4358C12.2518 23.8842 12.4159 24.4114 12.4159 24.9508C12.4152 25.6738 12.1201 26.367 11.5955 26.8783C11.0709 27.3895 10.3595 27.6771 9.61761 27.6778ZM29.2059 7.22524H32.4799L35.4797 14.0428H29.2059V7.22524ZM29.2059 27.6778C28.6524 27.6778 28.1114 27.5179 27.6512 27.2182C27.191 26.9186 26.8324 26.4927 26.6206 25.9944C26.4088 25.4961 26.3533 24.9478 26.4613 24.4188C26.5693 23.8898 26.8358 23.4039 27.2272 23.0225C27.6185 22.6411 28.1171 22.3814 28.6599 22.2762C29.2028 22.171 29.7654 22.225 30.2767 22.4314C30.7881 22.6378 31.2251 22.9873 31.5326 23.4358C31.8401 23.8842 32.0042 24.4114 32.0042 24.9508C32.0035 25.6738 31.7084 26.367 31.1838 26.8783C30.6591 27.3895 29.9478 27.6771 29.2059 27.6778ZM36.2017 23.5873H34.6038C34.2956 22.4194 33.5984 21.3841 32.6216 20.6438C31.6447 19.9036 30.4433 19.5001 29.2059 19.4968V16.7698H36.2017V23.5873Z" fill="#FD5D03"/>
</svg>
