<svg width="36" height="38" viewBox="0 0 36 38" fill="none" xmlns="http://www.w3.org/2000/svg">
<path d="M22.1026 3.09248C22.1592 3.02159 22.2295 2.96249 22.3093 2.91858C22.3891 2.87466 22.4769 2.84681 22.5676 2.83662C22.6584 2.82643 22.7502 2.83411 22.838 2.85921C22.9257 2.8843 23.0075 2.92633 23.0788 2.98286L24.5742 4.16953L19.1063 11.0566H22.6288L26.7383 5.8824L30.2054 8.63122C30.278 8.68879 30.3382 8.76026 30.3823 8.84136C30.4264 8.92246 30.4535 9.01154 30.4621 9.10325C30.4706 9.19497 30.4604 9.28744 30.432 9.37515C30.4036 9.46286 30.3576 9.544 30.2968 9.61372L29.0395 11.0566H32.6589C33.1356 10.3438 33.3258 9.48024 33.1921 8.63569C33.0583 7.79113 32.6104 7.02658 31.9362 6.49219L24.8095 0.843823C24.4535 0.561731 24.0447 0.352042 23.6066 0.226805C23.1684 0.101568 22.7096 0.0632525 22.2564 0.114059C21.8032 0.164866 21.3647 0.303794 20.966 0.52286C20.5672 0.741926 20.2161 1.03681 19.9329 1.39057L12.1971 11.0566H15.7292L22.1026 3.09248ZM24.9231 23.3893C24.5559 23.3893 24.2037 23.5337 23.944 23.7907C23.6843 24.0476 23.5385 24.3962 23.5385 24.7596C23.5385 25.123 23.6843 25.4716 23.944 25.7286C24.2037 25.9855 24.5559 26.1299 24.9231 26.1299H29.0769C29.4441 26.1299 29.7963 25.9855 30.056 25.7286C30.3157 25.4716 30.4615 25.123 30.4615 24.7596C30.4615 24.3962 30.3157 24.0476 30.056 23.7907C29.7963 23.5337 29.4441 23.3893 29.0769 23.3893H24.9231ZM4.15385 6.94576C3.05218 6.94576 1.99563 7.37887 1.21663 8.14981C0.437636 8.92075 0 9.96637 0 11.0566V30.926C0 32.5614 0.656454 34.1298 1.82495 35.2862C2.99345 36.4426 4.57827 37.0923 6.23077 37.0923H29.7692C31.4217 37.0923 33.0066 36.4426 34.175 35.2862C35.3435 34.1298 36 32.5614 36 30.926V18.5933C36 16.9579 35.3435 15.3894 34.175 14.233C33.0066 13.0766 31.4217 12.4269 29.7692 12.4269H4.15385C3.78662 12.4269 3.43444 12.2826 3.17478 12.0256C2.91511 11.7686 2.76923 11.4201 2.76923 11.0566C2.76923 10.6932 2.91511 10.3447 3.17478 10.0877C3.43444 9.83072 3.78662 9.68635 4.15385 9.68635H10.4954L12.7052 6.94576H4.15385ZM2.76923 30.926V14.9346C3.20262 15.0853 3.66923 15.1675 4.15385 15.1675H29.7692C30.6873 15.1675 31.5677 15.5285 32.2169 16.1709C32.8661 16.8134 33.2308 17.6847 33.2308 18.5933V30.926C33.2308 31.8345 32.8661 32.7059 32.2169 33.3483C31.5677 33.9908 30.6873 34.3517 29.7692 34.3517H6.23077C5.31271 34.3517 4.43226 33.9908 3.78309 33.3483C3.13393 32.7059 2.76923 31.8345 2.76923 30.926Z" fill="#FD5D03"/>
</svg>
